# xmcd CD database file generated by Grip 3.4.3
# 
# Track frame offsets:
#       150
#       47400
#       76275
#       111525
#       169475
#       203637
# 
# Disc length: 3230 seconds
# 
# Revision: 5
# Processed by: cddbd v1.5.2PL0 Copyright (c) Steve Scherf et al.
# Submitted via: Grip 3.4.3
# 
DISCID=4b0c9c06
DTITLE=Jenö Jandó (piano), Concentus Hungaricus - Mátyás Antal - Moz
DTITLE=art: Complete Piano Concertos Vol. 4 - Nos. 23 and 24
DYEAR=1988
DGENRE=Classical
TTITLE0=Concerto No.23 in A Major, K.488 - I. Allegro
TTITLE1=II. Adagio
TTITLE2=III. Allego assai
TTITLE3=Concerto No.24 in C Minor, K.491 - I. Allegro
TTITLE4=Larghetto
TTITLE5=III. Allegretto
EXTD=
EXTT0=
EXTT1=
EXTT2=
EXTT3=
EXTT4=
EXTT5=
PLAYORDER=
